<svg width="107" height="28" viewBox="0 0 107 28" fill="none" xmlns="http://www.w3.org/2000/svg">
<path d="M0.278409 5.3821V0.818181H21.7812V5.3821H13.7656V27H8.29403V5.3821H0.278409ZM36.3647 11.7486V16.0696H24.4244V11.7486H36.3647ZM41.1076 27V0.818181H46.6431V12.3622H46.9883L56.4102 0.818181H63.0451L53.3292 12.5412L63.1602 27H56.538L49.3661 16.2358L46.6431 19.5597V27H41.1076ZM66.81 27L77.6637 5.52273V5.34375H65.0202V0.818181H83.391V5.40767L72.5245 27H66.81ZM96.2646 27.358C94.3555 27.358 92.6552 27.0298 91.1637 26.3736C89.6808 25.7088 88.5089 24.7969 87.6481 23.6378C86.7958 22.4702 86.3569 21.1236 86.3313 19.598H91.9052C91.9393 20.2372 92.1481 20.7997 92.5316 21.2855C92.9237 21.7628 93.4435 22.1335 94.0913 22.3977C94.739 22.6619 95.4677 22.794 96.2773 22.794C97.1211 22.794 97.8668 22.6449 98.5146 22.3466C99.1623 22.0483 99.6694 21.6349 100.036 21.1065C100.402 20.5781 100.586 19.9687 100.586 19.2784C100.586 18.5795 100.39 17.9616 99.9975 17.4247C99.614 16.8793 99.06 16.4531 98.3356 16.1463C97.6197 15.8395 96.7674 15.6861 95.7788 15.6861H93.337V11.6207H95.7788C96.614 11.6207 97.3512 11.4759 97.9904 11.1861C98.6381 10.8963 99.141 10.4957 99.4989 9.98438C99.8569 9.46449 100.036 8.85938 100.036 8.16903C100.036 7.51278 99.8782 6.9375 99.5629 6.44318C99.256 5.94034 98.8214 5.5483 98.2589 5.26705C97.7049 4.9858 97.0572 4.84517 96.3157 4.84517C95.5657 4.84517 94.8796 4.98153 94.2575 5.25426C93.6353 5.51846 93.1367 5.89773 92.7617 6.39205C92.3867 6.88636 92.1864 7.46591 92.1609 8.13068H86.8555C86.881 6.62216 87.3114 5.29261 88.1467 4.14205C88.9819 2.99148 90.1069 2.09233 91.5217 1.4446C92.945 0.788351 94.5515 0.460226 96.3413 0.460226C98.1481 0.460226 99.729 0.788351 101.084 1.4446C102.439 2.10085 103.492 2.98721 104.242 4.10369C105 5.21165 105.375 6.45597 105.367 7.83665C105.375 9.30256 104.919 10.5256 103.999 11.5057C103.087 12.4858 101.898 13.108 100.432 13.3722V13.5767C102.358 13.8239 103.824 14.4929 104.83 15.5838C105.844 16.6662 106.347 18.0213 106.338 19.6491C106.347 21.1406 105.917 22.4659 105.047 23.625C104.186 24.7841 102.998 25.696 101.48 26.3608C99.9634 27.0256 98.2248 27.358 96.2646 27.358Z" fill="#883E27"/>
</svg>
